<svg width="512" height="579" viewBox="0 0 512 579" fill="none" xmlns="http://www.w3.org/2000/svg">
<path d="M73.7003 233.254L75.8549 237.623L80.6734 238.323L77.1871 241.725L78.0102 246.526L73.7003 244.258L69.3903 246.526L70.2134 241.725L66.7266 238.323L71.5456 237.623L73.7003 233.254Z" fill="#E7E8E5"/>
<path d="M505.026 438.914L507.182 443.282L512 443.984L508.514 447.382L509.337 452.185L505.026 449.918L500.716 452.185L501.54 447.382L498.053 443.984L502.871 443.282L505.026 438.914Z" fill="#F3F2F1"/>
<path d="M419.594 565.697L421.749 570.066L426.567 570.767L423.08 574.167L423.904 578.968L419.594 576.702L415.284 578.968L416.106 574.167L412.62 570.767L417.439 570.066L419.594 565.697Z" fill="#F3F2F1"/>
<path d="M224.148 155.793L224.949 157.415L226.737 157.675C227.184 157.74 227.362 158.288 227.039 158.603L225.745 159.865L226.05 161.647C226.127 162.092 225.659 162.431 225.261 162.221L223.66 161.38L222.061 162.221C221.661 162.431 221.195 162.092 221.271 161.647L221.576 159.865L220.282 158.603C219.959 158.288 220.138 157.74 220.584 157.675L222.373 157.415L223.172 155.793C223.372 155.388 223.948 155.388 224.148 155.793Z" fill="#E7E8E5"/>
<path d="M4.03111 544.952L4.83126 546.574L6.62 546.833C7.06671 546.898 7.24423 547.446 6.92198 547.763L5.62727 549.025L5.93286 550.807C6.00882 551.252 5.54238 551.592 5.14311 551.38L3.54282 550.54L1.94305 551.38C1.54378 551.592 1.07734 551.252 1.1533 550.807L1.45889 549.025L0.164846 547.763C-0.157931 547.446 0.0201164 546.898 0.466168 546.833L2.25544 546.574L3.05505 544.952C3.25495 544.546 3.83174 544.546 4.03111 544.952Z" fill="#F3F2F1"/>
<path d="M39.9847 138.654L40.7848 140.275L42.5736 140.535C43.0198 140.6 43.1978 141.15 42.875 141.464L41.5808 142.727L41.8864 144.51C41.9624 144.954 41.496 145.294 41.0967 145.083L39.4964 144.242L37.8968 145.083C37.4974 145.294 37.0309 144.954 37.107 144.51L37.4126 142.727L36.1184 141.464C35.7951 141.15 35.9737 140.6 36.4197 140.535L38.2085 140.275L39.0086 138.654C39.208 138.25 39.7853 138.25 39.9847 138.654Z" fill="#E7E8E5"/>
<path d="M119.847 357.901V307.449L76.9936 357.901H119.847ZM119.847 392.459H38.7459V355.824L119.847 259.369H158.648V357.901H178.76V392.459H158.648V422.425H119.847V392.459Z" fill="#5690E8"/>
<path d="M236.797 341.716C236.797 362.131 238.6 376.074 242.207 383.547C245.815 391.02 251.042 394.757 257.891 394.757C262.408 394.757 266.325 393.171 269.641 389.999C272.957 386.827 275.397 381.816 276.965 374.962C278.531 368.11 279.315 357.428 279.315 342.92C279.315 321.633 277.51 307.324 273.904 299.997C270.297 292.67 264.887 289.006 257.673 289.006C250.313 289.006 244.994 292.744 241.714 300.215C238.436 307.691 236.797 321.523 236.797 341.716ZM192.639 341.607C192.639 311.135 198.121 289.81 209.089 277.634C220.056 265.458 236.759 259.369 259.203 259.369C269.987 259.369 278.84 260.701 285.764 263.361C292.686 266.024 298.334 269.484 302.705 273.751C307.076 278.016 310.52 282.5 313.033 287.201C315.548 291.904 317.57 297.39 319.1 303.661C322.086 315.619 323.58 328.085 323.58 341.062C323.58 370.15 318.663 391.439 308.826 404.928C298.988 418.415 282.047 425.157 258.001 425.157C244.52 425.157 233.626 423.006 225.321 418.705C217.013 414.404 210.199 408.097 204.882 399.786C201.018 393.881 198.013 385.807 195.865 375.564C193.714 365.32 192.639 354.002 192.639 341.607Z" fill="#5690E8"/>
<path d="M418.453 357.901V307.449L375.6 357.901H418.453ZM418.453 392.459H337.352V355.824L418.453 259.369H457.255V357.901H477.365V392.459H457.255V422.425H418.453V392.459Z" fill="#5690E8"/>
<path d="M188.355 205.568C186.982 205.568 185.869 204.454 185.869 203.08C185.869 201.706 186.982 200.593 188.355 200.593C189.727 200.593 190.84 201.706 190.84 203.08C190.84 204.454 189.727 205.568 188.355 205.568Z" fill="#B8D2EF"/>
<path d="M20.2758 298.865C19.3023 298.865 18.5125 298.074 18.5125 297.099C18.5125 296.126 19.3023 295.335 20.2758 295.335C21.2494 295.335 22.039 296.126 22.039 297.099C22.039 298.074 21.2494 298.865 20.2758 298.865Z" fill="#B8D2EF"/>
<path d="M121.972 191.252C122.259 191.139 122.54 191.023 122.822 190.902V190.903C122.542 191.023 122.258 191.14 121.972 191.252Z" fill="#CFE0F4"/>
<path d="M448.239 259.369H443.481C443.482 259.368 443.485 259.368 443.486 259.365H448.244C448.242 259.368 448.24 259.368 448.239 259.369Z" fill="#C3C5C2"/>
<path d="M353.209 392.454H350.477C362.937 316.48 407.632 283.691 443.48 259.369H448.238C412.402 283.597 366.015 315.547 353.209 392.454Z" fill="#3563B7"/>
<path d="M262.896 499.961C240.28 499.962 217.839 489.745 206.942 473.044C200.208 462.724 192.387 441.109 215.677 412.27L217.751 413.947C201.275 434.347 198.229 454.817 209.173 471.586C222.492 491.998 253.946 502.262 280.778 494.958C308.269 487.474 324.959 463.547 326.571 429.317C332.081 312.235 394.251 276.169 439.645 249.834C467.848 233.473 488.225 221.651 483.745 196.714C483.124 193.255 481.745 190.864 479.53 189.405C473.729 185.58 462.401 188.224 449.286 191.283C423.557 197.279 388.321 205.493 367.33 169.77L369.627 168.418C389.625 202.451 422.37 194.819 448.681 188.685C462.394 185.489 474.238 182.729 480.995 187.177C483.853 189.06 485.611 192.026 486.368 196.243C491.178 223.021 469.027 235.871 440.982 252.142C396.118 278.168 334.676 313.814 329.233 429.441C327.563 464.905 310.159 489.722 281.478 497.532C275.434 499.177 269.156 499.96 262.896 499.961Z" fill="#5690E8"/>
<path d="M235.444 14.3474C243.721 7.21779 253.926 2.70408 264.767 1.37708C275.608 0.0500691 286.599 1.96933 296.35 6.8922C306.101 11.8151 314.174 19.5205 319.548 29.0339C324.922 38.5474 327.356 49.4417 326.542 60.3392C325.728 71.2366 321.702 81.6479 314.974 90.2563C308.247 98.8647 299.119 105.284 288.744 108.701C278.37 112.119 267.216 112.382 256.693 109.458C246.169 106.533 236.749 100.552 229.623 92.2701C224.891 86.7712 221.288 80.3937 219.02 73.5017C216.752 66.6098 215.863 59.3382 216.403 52.1024C216.944 44.8666 218.904 37.8082 222.171 31.3302C225.438 24.8521 229.948 19.0814 235.444 14.3474Z" fill="#5690E8"/>
<path d="M371.874 146.652C378.038 153.814 377.23 164.617 370.07 170.782V170.782C362.905 176.951 352.096 176.142 345.931 168.975L306.239 122.837C303.866 120.309 302.162 117.229 301.279 113.876C300.16 108.388 302.209 102.676 307.504 98.0721C316.056 90.7133 324.811 91.9565 331.774 100.055L371.874 146.652Z" fill="#5690E8"/>
<path d="M248.563 29.5918C253.827 25.0582 260.317 22.1882 267.211 21.3448C274.105 20.5013 281.095 21.7222 287.295 24.8532C293.496 27.9842 298.63 32.8846 302.047 38.9347C305.464 44.9848 307.011 51.9129 306.493 58.8428C305.975 65.7728 303.414 72.3933 299.135 77.8673C294.857 83.3413 289.051 87.4228 282.454 89.5958C275.857 91.7687 268.763 91.9354 262.071 90.0749C255.379 88.2144 249.389 84.4102 244.858 79.1433C241.848 75.6469 239.556 71.5914 238.113 67.2085C236.67 62.8255 236.105 58.2011 236.449 53.5994C236.793 48.9977 238.04 44.509 240.119 40.3896C242.197 36.2703 245.067 32.6011 248.563 29.5918Z" fill="#E4ECF9"/>
<path d="M266.024 63.4273L274.861 72.2685L270.929 76.2028L262.092 67.3616L253.167 76.2912L249.235 72.3569L258.16 63.4273L249.346 54.6082L253.278 50.6738L262.092 59.4929L271.105 50.4749L275.038 54.4093L266.024 63.4273Z" fill="#5690E8"/>
<path d="M412.971 240.363C412.723 240.316 412.475 240.268 412.227 240.222C412.475 240.267 412.723 240.314 412.971 240.359C412.971 240.36 412.971 240.362 412.971 240.363Z" fill="#B8D2EF"/>
<path d="M382.05 266.791C382.439 266.324 382.82 265.868 383.187 265.43C383.806 264.69 384.15 263.799 384.218 262.89C384.153 263.799 383.81 264.691 383.188 265.432C382.82 265.868 382.446 266.327 382.05 266.791Z" fill="#B8D2EF"/>
<path d="M258.002 425.161C254.622 425.161 251.408 425.026 248.355 424.756V424.752C251.408 425.022 254.624 425.157 258.001 425.157C260.073 425.157 262.092 425.108 264.059 425.008C262.096 425.11 260.08 425.161 258.002 425.161ZM248.022 424.725C244.431 424.394 241.07 423.874 237.934 423.168C241.07 423.873 244.433 424.392 248.022 424.722V424.725ZM226.236 419.166C225.93 419.017 225.624 418.863 225.325 418.707C225.245 418.666 225.165 418.625 225.085 418.582C225.163 418.623 225.242 418.665 225.321 418.705C225.622 418.862 225.927 419.015 226.236 419.166ZM268.422 391.071C268.836 390.736 269.241 390.379 269.636 389.999C272.85 386.927 275.239 382.128 276.814 375.604C275.242 382.131 272.851 386.927 269.64 389.999C269.243 390.379 268.837 390.736 268.422 391.071Z" fill="#C3C5C2"/>
<path d="M248.355 424.756C248.244 424.745 248.132 424.736 248.022 424.725V424.722C248.132 424.733 248.243 424.742 248.355 424.752V424.756Z" fill="#B1B3B1"/>
<path d="M264.059 425.008C264.171 425.001 264.282 424.996 264.392 424.99C264.282 424.996 264.17 425.002 264.059 425.008Z" fill="#B1B3B1"/>
<path d="M258.001 425.157C254.624 425.157 251.408 425.022 248.355 424.752C248.243 424.742 248.132 424.733 248.022 424.722C244.433 424.392 241.07 423.873 237.934 423.168C233.603 422.19 229.704 420.857 226.236 419.166C225.927 419.015 225.622 418.862 225.32 418.705C225.242 418.665 225.163 418.623 225.085 418.582C224.633 418.345 224.185 418.101 223.743 417.851L240.734 399.792C243.288 397.078 245.76 394.293 248.148 391.439C250.916 393.654 254.167 394.761 257.895 394.761C261.872 394.761 265.384 393.53 268.422 391.071C268.837 390.736 269.243 390.379 269.64 389.999C272.851 386.927 275.242 382.131 276.814 375.604C276.866 375.39 276.917 375.176 276.966 374.958C278.192 369.598 278.939 361.878 279.205 351.824L304.806 334.636L285.016 386.266C279.805 399.893 273.048 412.88 264.892 424.961C264.736 424.97 264.582 424.98 264.426 424.988C264.415 424.989 264.403 424.989 264.392 424.99C264.282 424.996 264.171 425.001 264.059 425.008C262.092 425.108 260.073 425.157 258.001 425.157Z" fill="#3563B7"/>
</svg>
