<svg width="158" height="40" viewBox="0 0 158 40" fill="none" xmlns="http://www.w3.org/2000/svg">
<path d="M60.584 28.168C59.352 28.168 58.248 27.968 57.272 27.568C56.296 27.168 55.512 26.576 54.92 25.792C54.344 25.008 54.04 24.064 54.008 22.96H58.376C58.44 23.584 58.656 24.064 59.024 24.4C59.392 24.72 59.872 24.88 60.464 24.88C61.072 24.88 61.552 24.744 61.904 24.472C62.256 24.184 62.432 23.792 62.432 23.296C62.432 22.88 62.288 22.536 62 22.264C61.728 21.992 61.384 21.768 60.968 21.592C60.568 21.416 59.992 21.216 59.24 20.992C58.152 20.656 57.264 20.32 56.576 19.984C55.888 19.648 55.296 19.152 54.8 18.496C54.304 17.84 54.056 16.984 54.056 15.928C54.056 14.36 54.624 13.136 55.76 12.256C56.896 11.36 58.376 10.912 60.2 10.912C62.056 10.912 63.552 11.36 64.688 12.256C65.824 13.136 66.432 14.368 66.512 15.952H62.072C62.04 15.408 61.84 14.984 61.472 14.68C61.104 14.36 60.632 14.2 60.056 14.2C59.56 14.2 59.16 14.336 58.856 14.608C58.552 14.864 58.4 15.24 58.4 15.736C58.4 16.28 58.656 16.704 59.168 17.008C59.68 17.312 60.48 17.64 61.568 17.992C62.656 18.36 63.536 18.712 64.208 19.048C64.896 19.384 65.488 19.872 65.984 20.512C66.48 21.152 66.728 21.976 66.728 22.984C66.728 23.944 66.48 24.816 65.984 25.6C65.504 26.384 64.8 27.008 63.872 27.472C62.944 27.936 61.848 28.168 60.584 28.168ZM81.8776 21.088C81.8776 21.472 81.8536 21.872 81.8056 22.288H72.5176C72.5816 23.12 72.8456 23.76 73.3096 24.208C73.7896 24.64 74.3736 24.856 75.0616 24.856C76.0856 24.856 76.7976 24.424 77.1976 23.56H81.5656C81.3416 24.44 80.9336 25.232 80.3416 25.936C79.7656 26.64 79.0376 27.192 78.1576 27.592C77.2776 27.992 76.2936 28.192 75.2056 28.192C73.8936 28.192 72.7256 27.912 71.7016 27.352C70.6776 26.792 69.8776 25.992 69.3016 24.952C68.7256 23.912 68.4376 22.696 68.4376 21.304C68.4376 19.912 68.7176 18.696 69.2776 17.656C69.8536 16.616 70.6536 15.816 71.6776 15.256C72.7016 14.696 73.8776 14.416 75.2056 14.416C76.5016 14.416 77.6536 14.688 78.6616 15.232C79.6696 15.776 80.4536 16.552 81.0136 17.56C81.5896 18.568 81.8776 19.744 81.8776 21.088ZM77.6776 20.008C77.6776 19.304 77.4376 18.744 76.9576 18.328C76.4776 17.912 75.8776 17.704 75.1576 17.704C74.4696 17.704 73.8856 17.904 73.4056 18.304C72.9416 18.704 72.6536 19.272 72.5416 20.008H77.6776ZM88.1467 16.84C88.6267 16.104 89.2267 15.528 89.9467 15.112C90.6667 14.68 91.4667 14.464 92.3467 14.464V18.808H91.2187C90.1947 18.808 89.4267 19.032 88.9147 19.48C88.4027 19.912 88.1467 20.68 88.1467 21.784V28H84.0427V14.608H88.1467V16.84ZM100.332 24.16L103.236 14.608H107.604L102.852 28H97.7883L93.0363 14.608H97.4283L100.332 24.16ZM111.396 13.216C110.676 13.216 110.084 13.008 109.62 12.592C109.172 12.16 108.948 11.632 108.948 11.008C108.948 10.368 109.172 9.84 109.62 9.424C110.084 8.992 110.676 8.776 111.396 8.776C112.1 8.776 112.676 8.992 113.124 9.424C113.588 9.84 113.82 10.368 113.82 11.008C113.82 11.632 113.588 12.16 113.124 12.592C112.676 13.008 112.1 13.216 111.396 13.216ZM113.436 14.608V28H109.332V14.608H113.436ZM115.594 21.304C115.594 19.912 115.874 18.696 116.434 17.656C117.01 16.616 117.802 15.816 118.81 15.256C119.834 14.696 121.002 14.416 122.314 14.416C123.994 14.416 125.394 14.856 126.514 15.736C127.65 16.616 128.394 17.856 128.746 19.456H124.378C124.01 18.432 123.298 17.92 122.242 17.92C121.49 17.92 120.89 18.216 120.442 18.808C119.994 19.384 119.77 20.216 119.77 21.304C119.77 22.392 119.994 23.232 120.442 23.824C120.89 24.4 121.49 24.688 122.242 24.688C123.298 24.688 124.01 24.176 124.378 23.152H128.746C128.394 24.72 127.65 25.952 126.514 26.848C125.378 27.744 123.978 28.192 122.314 28.192C121.002 28.192 119.834 27.912 118.81 27.352C117.802 26.792 117.01 25.992 116.434 24.952C115.874 23.912 115.594 22.696 115.594 21.304ZM143.565 21.088C143.565 21.472 143.541 21.872 143.493 22.288H134.205C134.269 23.12 134.533 23.76 134.997 24.208C135.477 24.64 136.061 24.856 136.749 24.856C137.773 24.856 138.485 24.424 138.885 23.56H143.253C143.029 24.44 142.621 25.232 142.029 25.936C141.453 26.64 140.725 27.192 139.845 27.592C138.965 27.992 137.981 28.192 136.893 28.192C135.581 28.192 134.413 27.912 133.389 27.352C132.365 26.792 131.565 25.992 130.989 24.952C130.413 23.912 130.125 22.696 130.125 21.304C130.125 19.912 130.405 18.696 130.965 17.656C131.541 16.616 132.341 15.816 133.365 15.256C134.389 14.696 135.565 14.416 136.893 14.416C138.189 14.416 139.341 14.688 140.349 15.232C141.357 15.776 142.141 16.552 142.701 17.56C143.277 18.568 143.565 19.744 143.565 21.088ZM139.365 20.008C139.365 19.304 139.125 18.744 138.645 18.328C138.165 17.912 137.565 17.704 136.845 17.704C136.157 17.704 135.573 17.904 135.093 18.304C134.629 18.704 134.341 19.272 134.229 20.008H139.365ZM151.178 28.192C150.01 28.192 148.97 27.992 148.058 27.592C147.146 27.192 146.426 26.648 145.898 25.96C145.37 25.256 145.074 24.472 145.01 23.608H149.066C149.114 24.072 149.33 24.448 149.714 24.736C150.098 25.024 150.57 25.168 151.13 25.168C151.642 25.168 152.034 25.072 152.306 24.88C152.594 24.672 152.738 24.408 152.738 24.088C152.738 23.704 152.538 23.424 152.138 23.248C151.738 23.056 151.09 22.848 150.194 22.624C149.234 22.4 148.434 22.168 147.794 21.928C147.154 21.672 146.602 21.28 146.138 20.752C145.674 20.208 145.442 19.48 145.442 18.568C145.442 17.8 145.65 17.104 146.066 16.48C146.498 15.84 147.122 15.336 147.938 14.968C148.77 14.6 149.754 14.416 150.89 14.416C152.57 14.416 153.89 14.832 154.85 15.664C155.826 16.496 156.386 17.6 156.53 18.976H152.738C152.674 18.512 152.466 18.144 152.114 17.872C151.778 17.6 151.33 17.464 150.77 17.464C150.29 17.464 149.922 17.56 149.666 17.752C149.41 17.928 149.282 18.176 149.282 18.496C149.282 18.88 149.482 19.168 149.882 19.36C150.298 19.552 150.938 19.744 151.802 19.936C152.794 20.192 153.602 20.448 154.226 20.704C154.85 20.944 155.394 21.344 155.858 21.904C156.338 22.448 156.586 23.184 156.602 24.112C156.602 24.896 156.378 25.6 155.93 26.224C155.498 26.832 154.866 27.312 154.034 27.664C153.218 28.016 152.266 28.192 151.178 28.192Z" fill="#233348"/>
<circle cx="20" cy="20" r="20" fill="#5690E8"/>
<path d="M20.216 29.182C18.8813 29.182 17.6853 28.9653 16.628 28.532C15.5707 28.0987 14.7213 27.4573 14.08 26.608C13.456 25.7587 13.1267 24.736 13.092 23.54H17.824C17.8933 24.216 18.1273 24.736 18.526 25.1C18.9247 25.4467 19.4447 25.62 20.086 25.62C20.7447 25.62 21.2647 25.4727 21.646 25.178C22.0273 24.866 22.218 24.4413 22.218 23.904C22.218 23.4533 22.062 23.0807 21.75 22.786C21.4553 22.4913 21.0827 22.2487 20.632 22.058C20.1987 21.8673 19.5747 21.6507 18.76 21.408C17.5813 21.044 16.6193 20.68 15.874 20.316C15.1287 19.952 14.4873 19.4147 13.95 18.704C13.4127 17.9933 13.144 17.066 13.144 15.922C13.144 14.2233 13.7593 12.8973 14.99 11.944C16.2207 10.9733 17.824 10.488 19.8 10.488C21.8107 10.488 23.4313 10.9733 24.662 11.944C25.8927 12.8973 26.5513 14.232 26.638 15.948H21.828C21.7933 15.3587 21.5767 14.8993 21.178 14.57C20.7793 14.2233 20.268 14.05 19.644 14.05C19.1067 14.05 18.6733 14.1973 18.344 14.492C18.0147 14.7693 17.85 15.1767 17.85 15.714C17.85 16.3033 18.1273 16.7627 18.682 17.092C19.2367 17.4213 20.1033 17.7767 21.282 18.158C22.4607 18.5567 23.414 18.938 24.142 19.302C24.8873 19.666 25.5287 20.1947 26.066 20.888C26.6033 21.5813 26.872 22.474 26.872 23.566C26.872 24.606 26.6033 25.5507 26.066 26.4C25.546 27.2493 24.7833 27.9253 23.778 28.428C22.7727 28.9307 21.5853 29.182 20.216 29.182Z" fill="white"/>
</svg>
