<svg width="40" height="40" viewBox="0 0 40 40" fill="none" xmlns="http://www.w3.org/2000/svg">
<circle cx="20" cy="20" r="20" fill="#5690E8"/>
<path d="M20.216 29.182C18.8813 29.182 17.6853 28.9653 16.628 28.532C15.5707 28.0987 14.7213 27.4573 14.08 26.608C13.456 25.7587 13.1267 24.736 13.092 23.54H17.824C17.8933 24.216 18.1273 24.736 18.526 25.1C18.9247 25.4467 19.4447 25.62 20.086 25.62C20.7447 25.62 21.2647 25.4727 21.646 25.178C22.0273 24.866 22.218 24.4413 22.218 23.904C22.218 23.4533 22.062 23.0807 21.75 22.786C21.4553 22.4913 21.0827 22.2487 20.632 22.058C20.1987 21.8673 19.5747 21.6507 18.76 21.408C17.5813 21.044 16.6193 20.68 15.874 20.316C15.1287 19.952 14.4873 19.4147 13.95 18.704C13.4127 17.9933 13.144 17.066 13.144 15.922C13.144 14.2233 13.7593 12.8973 14.99 11.944C16.2207 10.9733 17.824 10.488 19.8 10.488C21.8107 10.488 23.4313 10.9733 24.662 11.944C25.8927 12.8973 26.5513 14.232 26.638 15.948H21.828C21.7933 15.3587 21.5767 14.8993 21.178 14.57C20.7793 14.2233 20.268 14.05 19.644 14.05C19.1067 14.05 18.6733 14.1973 18.344 14.492C18.0147 14.7693 17.85 15.1767 17.85 15.714C17.85 16.3033 18.1273 16.7627 18.682 17.092C19.2367 17.4213 20.1033 17.7767 21.282 18.158C22.4607 18.5567 23.414 18.938 24.142 19.302C24.8873 19.666 25.5287 20.1947 26.066 20.888C26.6033 21.5813 26.872 22.474 26.872 23.566C26.872 24.606 26.6033 25.5507 26.066 26.4C25.546 27.2493 24.7833 27.9253 23.778 28.428C22.7727 28.9307 21.5853 29.182 20.216 29.182Z" fill="white"/>
</svg>
